{
  "accessors": [
    {
      "bufferView": 1,
      "componentType": 5126,
      "count": 6530,
      "max": [
        1,
        1,
        0.49897998571395874
      ],
      "min": [
        -1,
        -1,
        -1
      ],
      "type": "VEC3"
    },
    {
      "bufferView": 1,
      "byteOffset": 78360,
      "componentType": 5126,
      "count": 6530,
      "max": [
        1,
        1,
        1
      ],
      "min": [
        -1,
        -1,
        -1
      ],
      "type": "VEC3"
    },
    {
      "bufferView": 0,
      "componentType": 5125,
      "count": 39168,
      "max": [
        6529
      ],
      "min": [
        0
      ],
      "type": "SCALAR"
    },
    {
      "bufferView": 1,
      "byteOffset": 156720,
      "componentType": 5126,
      "count": 8066,
      "max": [
        1.0369000434875488,
        1.0369000434875488,
        1.6821500062942505
      ],
      "min": [
        -1.0369000434875488,
        -1.0369000434875488,
        1.1682599782943726
      ],
      "type": "VEC3"
    },
    {
      "bufferView": 1,
      "byteOffset": 253512,
      "componentType": 5126,
      "count": 8066,
      "max": [
        1,
        1,
        1
      ],
      "min": [
        -1,
        -1,
        -1
      ],
      "type": "VEC3"
    },
    {
      "bufferView": 0,
      "byteOffset": 156672,
      "componentType": 5125,
      "count": 48384,
      "max": [
        8065
      ],
      "min": [
        0
      ],
      "type": "SCALAR"
    },
    {
      "bufferView": 1,
      "byteOffset": 350304,
      "componentType": 5126,
      "count": 28162,
      "max": [
        -0.56200999021530151,
        0.89595997333526611,
        1.3523900508880615
      ],
      "min": [
        -3.5001299381256104,
        -3.9440500736236572,
        0.4382300078868866
      ],
      "type": "VEC3"
    },
    {
      "bufferView": 1,
      "byteOffset": 688248,
      "componentType": 5126,
      "count": 28162,
      "max": [
        0.99608069658279419,
        0.99275249242782593,
        0.99999946355819702
      ],
      "min": [
        -0.99941301345825195,
        -0.9971543550491333,
        -0.99999791383743286
      ],
      "type": "VEC3"
    },
    {
      "bufferView": 0,
      "byteOffset": 350208,
      "componentType": 5125,
      "count": 168960,
      "max": [
        28161
      ],
      "min": [
        0
      ],
      "type": "SCALAR"
    },
    {
      "bufferView": 1,
      "byteOffset": 1026192,
      "componentType": 5126,
      "count": 28162,
      "max": [
        -0.59587997198104858,
        0.84526002407073975,
        1.3407000303268433
      ],
      "min": [
        -3.3586499691009521,
        -3.8784599304199219,
        0.31689000129699707
      ],
      "type": "VEC3"
    },
    {
      "bufferView": 1,
      "byteOffset": 1364136,
      "componentType": 5126,
      "count": 28162,
      "max": [
        0.99998146295547485,
        0.99954724311828613,
        0.99999898672103882
      ],
      "min": [
        -0.99995774030685425,
        -0.99869704246520996,
        -0.99999970197677612
      ],
      "type": "VEC3"
    },
    {
      "bufferView": 0,
      "byteOffset": 1026048,
      "componentType": 5125,
      "count": 168960,
      "max": [
        28161
      ],
      "min": [
        0
      ],
      "type": "SCALAR"
    },
    {
      "bufferView": 1,
      "byteOffset": 1702080,
      "componentType": 5126,
      "count": 59904,
      "max": [
        0.20757000148296356,
        0.2600100040435791,
        0.27636998891830444
      ],
      "min": [
        -0.13444000482559204,
        -0.23089000582695007,
        -0.26403000950813293
      ],
      "type": "VEC3"
    },
    {
      "bufferView": 1,
      "byteOffset": 2420928,
      "componentType": 5126,
      "count": 59904,
      "max": [
        0.99998801946640015,
        0.99995630979537964,
        0.99998575448989868
      ],
      "min": [
        -0.99998217821121216,
        -0.99992489814758301,
        -0.99999696016311646
      ],
      "type": "VEC3"
    },
    {
      "bufferView": 0,
      "byteOffset": 1701888,
      "componentType": 5125,
      "count": 359424,
      "max": [
        59903
      ],
      "min": [
        0
      ],
      "type": "SCALAR"
    },
    {
      "bufferView": 1,
      "byteOffset": 3139776,
      "componentType": 5126,
      "count": 60928,
      "max": [
        -3.3331599235534668,
        0.84851998090744019,
        2.0701498985290527
      ],
      "min": [
        -5.3058199882507324,
        -0.82323002815246582,
        -0.0010900000343099236
      ],
      "type": "VEC3"
    },
    {
      "bufferView": 1,
      "byteOffset": 3870912,
      "componentType": 5126,
      "count": 60928,
      "max": [
        1,
        1,
        1
      ],
      "min": [
        -1,
        -0.99999994039535522,
        -1
      ],
      "type": "VEC3"
    },
    {
      "bufferView": 0,
      "byteOffset": 3139584,
      "componentType": 5125,
      "count": 365568,
      "max": [
        60927
      ],
      "min": [
        0
      ],
      "type": "SCALAR"
    },
    {
      "bufferView": 1,
      "byteOffset": 4602048,
      "componentType": 5126,
      "count": 60928,
      "max": [
        -3.3331599235534668,
        0.84851998090744019,
        2.0701498985290527
      ],
      "min": [
        -5.3058199882507324,
        -0.82323002815246582,
        -0.0010900000343099236
      ],
      "type": "VEC3"
    },
    {
      "bufferView": 1,
      "byteOffset": 5333184,
      "componentType": 5126,
      "count": 60928,
      "max": [
        1,
        1,
        1
      ],
      "min": [
        -1,
        -0.99999994039535522,
        -1
      ],
      "type": "VEC3"
    },
    {
      "bufferView": 0,
      "byteOffset": 4601856,
      "componentType": 5125,
      "count": 365568,
      "max": [
        60927
      ],
      "min": [
        0
      ],
      "type": "SCALAR"
    }
  ],
  "asset": {
    "extras": {
      "author": "Xan San (https://sketchfab.com/xansan3dartist)",
      "license": "CC-BY-4.0 (http://creativecommons.org/licenses/by/4.0/)",
      "source": "https://sketchfab.com/models/a746f46314444264851bd3ca894d27ff",
      "title": "Gift Box"
    },
    "generator": "Sketchfab-3.29.3",
    "version": "2.0"
  },
  "bufferViews": [
    {
      "buffer": 0,
      "byteLength": 6064128,
      "byteOffset": 0,
      "name": "floatBufferViews",
      "target": 34963
    },
    {
      "buffer": 0,
      "byteLength": 6064320,
      "byteOffset": 6064128,
      "byteStride": 12,
      "name": "floatBufferViews",
      "target": 34962
    }
  ],
  "buffers": [
    {
      "byteLength": 12128448,
      "uri": "scene.bin"
    }
  ],
  "materials": [
    {
      "doubleSided": true,
      "emissiveFactor": [
        0,
        0,
        0
      ],
      "name": "Scene_-_Root",
      "pbrMetallicRoughness": {
        "baseColorFactor": [
          0.5,
          0.5,
          0.5,
          1
        ],
        "metallicFactor": 0,
        "roughnessFactor": 0.59999999999999998
      }
    }
  ],
  "meshes": [
    {
      "name": "thanhop",
      "primitives": [
        {
          "attributes": {
            "NORMAL": 1,
            "POSITION": 0
          },
          "indices": 2,
          "material": 0,
          "mode": 4
        }
      ]
    },
    {
      "name": "naphop",
      "primitives": [
        {
          "attributes": {
            "NORMAL": 4,
            "POSITION": 3
          },
          "indices": 5,
          "material": 0,
          "mode": 4
        }
      ]
    },
    {
      "name": "ruybang",
      "primitives": [
        {
          "attributes": {
            "NORMAL": 7,
            "POSITION": 6
          },
          "indices": 8,
          "material": 0,
          "mode": 4
        }
      ]
    },
    {
      "name": "ruybang.001",
      "primitives": [
        {
          "attributes": {
            "NORMAL": 10,
            "POSITION": 9
          },
          "indices": 11,
          "material": 0,
          "mode": 4
        }
      ]
    },
    {
      "name": "ruybang.004",
      "primitives": [
        {
          "attributes": {
            "NORMAL": 13,
            "POSITION": 12
          },
          "indices": 14,
          "material": 0,
          "mode": 4
        }
      ]
    },
    {
      "name": "ruybang.002",
      "primitives": [
        {
          "attributes": {
            "NORMAL": 16,
            "POSITION": 15
          },
          "indices": 17,
          "material": 0,
          "mode": 4
        }
      ]
    },
    {
      "name": "ruybang.003",
      "primitives": [
        {
          "attributes": {
            "NORMAL": 19,
            "POSITION": 18
          },
          "indices": 20,
          "material": 0,
          "mode": 4
        }
      ]
    }
  ],
  "nodes": [
    {
      "children": [
        1
      ],
      "name": "RootNode (gltf orientation matrix)",
      "rotation": [
        -0.70710678118654746,
        -0,
        -0,
        0.70710678118654757
      ]
    },
    {
      "children": [
        2
      ],
      "name": "RootNode (model correction matrix)"
    },
    {
      "children": [
        3,
        5,
        7,
        9,
        11,
        13,
        15
      ],
      "name": "Root"
    },
    {
      "children": [
        4
      ],
      "matrix": [
        1,
        0,
        0,
        0,
        0,
        1,
        0,
        0,
        0,
        0,
        1,
        0,
        0.0037300000000000011,
        0,
        0,
        1
      ],
      "name": "thanhop"
    },
    {
      "mesh": 0,
      "name": "thanhop"
    },
    {
      "children": [
        6
      ],
      "matrix": [
        1,
        0,
        0,
        0,
        0,
        1,
        0,
        0,
        0,
        0,
        1,
        0,
        0.0037300000000000011,
        0,
        -0.70510000000000006,
        1
      ],
      "name": "naphop"
    },
    {
      "mesh": 1,
      "name": "naphop"
    },
    {
      "children": [
        8
      ],
      "matrix": [
        0.85380000000000011,
        0.52060000000000006,
        0,
        0,
        -0.076510000000000009,
        0.12547,
        0,
        0,
        0,
        0,
        1,
        0,
        1.3338399999999999,
        0.86854000000000009,
        0.010340000000000002,
        1
      ],
      "name": "ruybang"
    },
    {
      "mesh": 2,
      "name": "ruybang"
    },
    {
      "children": [
        10
      ],
      "matrix": [
        -0.76634000000000013,
        0.64243000000000006,
        0,
        0,
        -0.094410000000000022,
        -0.11262000000000003,
        0,
        0,
        0,
        0,
        1,
        0,
        -1.3197399999999999,
        1.0369599999999999,
        0.050310000000000014,
        1
      ],
      "name": "ruybang.001"
    },
    {
      "mesh": 3,
      "name": "ruybang.001"
    },
    {
      "children": [
        12
      ],
      "matrix": [
        0.67091000000000012,
        0.046350000000000016,
        0.0065800000000000025,
        0,
        -0,
        -0.048090000000000008,
        0.33868000000000009,
        0,
        0.054140000000000015,
        -0.7682500000000001,
        -0.10910000000000002,
        0,
        -0.021210000000000003,
        0.012230000000000003,
        1.0995299999999999,
        1
      ],
      "name": "ruybang.004"
    },
    {
      "mesh": 4,
      "name": "ruybang.004"
    },
    {
      "children": [
        14
      ],
      "matrix": [
        0,
        0.15132000000000001,
        0,
        0,
        -1.2593999999999999,
        0,
        0,
        0,
        0,
        0,
        1,
        0,
        0.019590000000000003,
        0.65486000000000011,
        -1.0161500000000001,
        1
      ],
      "name": "ruybang.002"
    },
    {
      "mesh": 5,
      "name": "ruybang.002"
    },
    {
      "children": [
        16
      ],
      "matrix": [
        -0.15132000000000001,
        0,
        0,
        0,
        -0,
        -1.2593999999999999,
        0,
        0,
        0,
        0,
        1,
        0,
        -0.65507000000000015,
        0.020320000000000005,
        -1.0161500000000001,
        1
      ],
      "name": "ruybang.003"
    },
    {
      "mesh": 6,
      "name": "ruybang.003"
    }
  ],
  "scene": 0,
  "scenes": [
    {
      "name": "OSG_Scene",
      "nodes": [
        0
      ]
    }
  ]
}

